<svg width="25" height="23" viewBox="0 0 25 23" fill="none" xmlns="http://www.w3.org/2000/svg">
<path d="M18.4397 22.0634H6.14727C5.33255 22.0624 4.5515 21.7381 3.9754 21.1616C3.3993 20.5852 3.0752 19.8037 3.07418 18.9884V8.51547L1.62755 9.56807C1.45302 9.69604 1.24225 9.76498 1.02587 9.76487C0.809317 9.7651 0.598254 9.69668 0.422974 9.56942C0.247693 9.44217 0.117206 9.26263 0.0502352 9.05656C-0.0167352 8.8505 -0.0167453 8.6285 0.0502063 8.42243C0.117158 8.21636 0.24763 8.03681 0.422898 7.90954L10.482 0.587909C11.0073 0.205809 11.6401 0 12.2896 0C12.9391 0 13.5719 0.205809 14.0972 0.587909L24.1628 7.90954C24.2717 7.9886 24.364 8.08838 24.4344 8.20317C24.5047 8.31797 24.5518 8.44552 24.5728 8.57853C24.5938 8.71153 24.5884 8.84738 24.5569 8.9783C24.5254 9.10923 24.4684 9.23264 24.3892 9.3415C24.2935 9.47174 24.1686 9.57775 24.0246 9.65104C23.8805 9.72434 23.7214 9.76287 23.5598 9.76357C23.3434 9.76396 23.1325 9.69499 22.9581 9.56678L21.5115 8.51417V18.9858C21.5111 19.8013 21.1875 20.5833 20.6116 21.1603C20.0357 21.7372 19.2546 22.062 18.4397 22.0634ZM11.2687 10.789H13.317C14.1316 10.7897 14.9126 11.1137 15.4888 11.6899C16.0649 12.2662 16.3891 13.0476 16.3901 13.8627V20.0126H18.4397C18.7114 20.0122 18.9718 19.9041 19.1639 19.7118C19.3561 19.5196 19.4641 19.259 19.4645 18.9871V7.02525L12.8965 2.24385C12.7212 2.11648 12.5101 2.04788 12.2935 2.04788C12.0768 2.04788 11.8658 2.11648 11.6905 2.24385L5.12248 7.02525V18.9871C5.12282 19.259 5.2309 19.5196 5.42301 19.7118C5.61512 19.9041 5.87559 20.0122 6.14727 20.0126H8.19558V13.8627C8.19661 13.0476 8.52075 12.2662 9.09688 11.6899C9.67301 11.1137 10.4541 10.7897 11.2687 10.789ZM11.2687 12.8385C10.9971 12.8385 10.7366 12.9464 10.5445 13.1384C10.3523 13.3304 10.2442 13.5909 10.2439 13.8627V20.0126H14.3418V13.8627C14.3414 13.5909 14.2333 13.3304 14.0412 13.1384C13.849 12.9464 13.5886 12.8385 13.317 12.8385H11.2687Z" fill="black"/>
</svg>
