<svg width="13" height="17" viewBox="0 0 13 17" fill="none" xmlns="http://www.w3.org/2000/svg">
<path d="M6.5 17C6.15816 16.9995 5.8287 16.8729 5.5755 16.6449C4.34153 15.5264 3.23884 14.2731 2.28841 12.9087C0.890311 11.0342 0.0929062 8.78512 0 6.45433C0 4.74254 0.684819 3.10085 1.90381 1.89043C3.12279 0.680008 4.77609 0 6.5 0C8.22391 0 9.87721 0.680008 11.0962 1.89043C12.3152 3.10085 13 4.74254 13 6.45433C12.9067 8.78534 12.1093 11.0346 10.7116 12.9096C9.76081 14.274 8.65779 15.5274 7.42354 16.6458C7.1706 16.8736 6.84143 16.9998 6.5 17ZM6.5 1.43461C5.15957 1.43586 3.87438 1.96509 2.92646 2.90618C1.97854 3.84726 1.44532 5.12332 1.44381 6.45433C1.53615 8.49655 2.24686 10.4636 3.48303 12.0983C4.35426 13.3555 5.3664 14.5104 6.5 15.5408C7.63435 14.5111 8.64657 13.3561 9.51697 12.0983C10.7531 10.4636 11.4639 8.49655 11.5562 6.45433C11.5549 5.12315 11.0218 3.84685 10.0739 2.90557C9.12593 1.96428 7.8406 1.43492 6.5 1.43367V1.43461ZM6.5 9.32355C5.92874 9.32355 5.3703 9.15536 4.89529 8.84023C4.42029 8.5251 4.05006 8.07719 3.8314 7.55314C3.61274 7.02908 3.55548 6.45242 3.66686 5.89605C3.77824 5.33969 4.05326 4.82861 4.45714 4.42743C4.86101 4.02626 5.37562 3.75301 5.93588 3.64223C6.49615 3.53145 7.07692 3.58812 7.60475 3.80506C8.13258 4.02201 8.58378 4.3895 8.9013 4.86106C9.21881 5.33262 9.38838 5.88708 9.38857 6.45433C9.38782 7.21482 9.08324 7.94394 8.54169 8.48168C8.00015 9.01943 7.26587 9.32186 6.5 9.32261V9.32355ZM6.5 5.02067C6.21421 5.02067 5.93484 5.10483 5.69723 5.26251C5.45962 5.42019 5.27445 5.6443 5.16512 5.90649C5.0558 6.16869 5.02725 6.45719 5.08307 6.7355C5.13889 7.01382 5.27659 7.26944 5.47874 7.47004C5.68088 7.67063 5.93841 7.80719 6.21872 7.86244C6.49904 7.91769 6.78957 7.88914 7.05355 7.78041C7.31752 7.67169 7.5431 7.48766 7.70174 7.25162C7.86038 7.01557 7.94495 6.73811 7.94476 6.45433C7.94451 6.07393 7.79221 5.70917 7.52132 5.44019C7.25043 5.1712 6.8831 5.01997 6.5 5.01972V5.02067Z" fill="black"/>
</svg>
