<svg width="26" height="22" viewBox="0 0 26 22" fill="none" xmlns="http://www.w3.org/2000/svg">
<path d="M12.8751 21.0732C12.0006 20.9975 11.1681 20.6741 10.4805 20.1431C9.57103 19.5199 8.70953 18.833 7.90291 18.0877C6.36754 16.7033 4.54259 14.8419 2.47312 12.5527C1.20302 11.1049 0.531412 9.24976 0.588714 7.34741C0.646015 5.44507 1.42814 3.63132 2.7832 2.25841C4.06959 0.923465 5.83377 0.119787 7.71166 0.0132302C9.58955 -0.0933263 11.4378 0.505371 12.8751 1.68577C14.3125 0.505459 16.1607 -0.0936375 18.0387 0.0119096C19.9167 0.117457 21.6816 0.919607 22.9697 2.25309C24.3267 3.62638 25.11 5.44148 25.1673 7.34537C25.2246 9.24926 24.5518 11.1058 23.2798 12.554C21.2117 14.8419 19.3854 16.7046 17.85 18.0891C17.0437 18.8329 16.1827 19.5185 15.2738 20.1405C14.5854 20.6731 13.7513 20.9975 12.8751 21.0732ZM8.14059 2.12554C7.41389 2.12555 6.69484 2.26991 6.02752 2.54978C5.3602 2.82965 4.75868 3.23913 4.25983 3.75312C3.28581 4.73187 2.72089 6.02802 2.67494 7.38945C2.62899 8.75088 3.10529 10.0803 4.01122 11.1191C6.03424 13.3578 7.81002 15.1687 9.28939 16.5C10.0159 17.1741 10.7921 17.7958 11.6116 18.3601C11.9816 18.6472 12.4135 18.8494 12.8751 18.9513C13.3363 18.8488 13.7678 18.6462 14.1373 18.3588C14.9568 17.7945 15.7329 17.1728 16.4594 16.4987C17.9388 15.1701 19.7146 13.3565 21.7376 11.1177C22.6432 10.0788 23.1194 8.74949 23.0734 7.38814C23.0275 6.02679 22.4627 4.73069 21.489 3.75179C20.557 2.78524 19.279 2.20363 17.9188 2.12698C16.5587 2.05034 15.2202 2.48452 14.1796 3.33991L12.8751 4.40415L11.5679 3.34124C10.607 2.5591 9.39489 2.12898 8.14196 2.12554H8.14059Z" fill="black"/>
</svg>
